<svg width="88" height="20" viewBox="0 0 88 20" xmlns="http://www.w3.org/2000/svg">
  <title>Botão Assistente Omni Max</title>

  <defs>
    <linearGradient id="buttonGradient" x1="0%" y1="0%" x2="100%" y2="0%">
      <stop offset="0%" stop-color="rgb(169, 39, 111)" />
      <stop offset="50%" stop-color="rgb(208, 33, 37)" />
      <stop offset="100%" stop-color="rgb(214, 98, 28)" />
    </linearGradient>
  </defs>

  <rect x="0" y="0" width="88" height="20" rx="12" ry="12" fill="url(#buttonGradient)" />

  <g transform="translate(10, 5)">
    <svg width="12" height="12" viewBox="0 0 512 512">
      <g transform="translate(0, 512) scale(1, -1)">
        <path fill="#FFFFFF" d="M6.7 188.3c50.8 12.9 90.8 52.9 103.7 103.7c1.2 4.9 7.5 4.9 8.8 0c12.9-50.8 52.9-90.8 103.7-103.7c4.9-1.2 4.9-7.5 0-8.8C172 166.7 132 126.7 119.2 75.9c-1.2-4.9-7.5-4.9-8.8 0c-12.9 50.8-52.9 90.8-103.7 103.7c-4.9 1.2-4.9 7.5 0 8.7z"></path>
        <path fill="#FFFFFF" d="M180 350.7c76 19.3 135.9 79.1 155.1 155.1c1.9 7.3 11.3 7.3 13.1 0c19.3-76 79.1-135.9 155.1-155.1c7.3-1.9 7.3-11.3 0-13.1c-76-19.3-135.9-79.1-155.1-155.1c-1.9-7.3-11.3-7.3-13.1 0c-19.3 76-79.1 135.9-155.1 155.1c-7.3 1.8-7.3 11.2 0 13.1z"></path>
      </g>
    </svg>
  </g>

  <text
    x="26"
    y="10"
    fill="#FFFFFF"
    font-family="-apple-system, BlinkMacSystemFont, 'Segoe UI', Roboto, Helvetica, Arial, sans-serif"
    font-size="10px"
    font-weight="500"
    dominant-baseline="middle"
    text-anchor="start">
    Assistente
  </text>
</svg>